/vscmnt/brussel_pixiu_data/_data_brussel/112/vsc11236/PredSimResults/SUBJ07opt3D/expIG/worker_13.mot
version=1
nRows=5
nColumns=50
inDegrees=yes
endheader
                time	         pelvis_tilt	         pelvis_list	     pelvis_rotation	           pelvis_tx	           pelvis_ty	           pelvis_tz	       hip_flexion_r	     hip_adduction_r	      hip_rotation_r	        knee_angle_r	       ankle_angle_r	         mtp_angle_r	       hip_flexion_l	     hip_adduction_l	      hip_rotation_l	        knee_angle_l	       ankle_angle_l	         mtp_angle_l	    lumbar_extension	      lumbar_bending	     lumbar_rotation	 ercspn_r/activation	 intobl_r/activation	 extobl_r/activation	    abd_r/activation	    add_r/activation	hamstrings_r/activation	bifemsh_r/activation	glut_max_r/activation	iliopsoas_r/activation	rect_fem_r/activation	  vasti_r/activation	gastroc_r/activation	 soleus_r/activation	tib_ant_r/activation	 ercspn_l/activation	 intobl_l/activation	 extobl_l/activation	    abd_l/activation	    add_l/activation	hamstrings_l/activation	bifemsh_l/activation	glut_max_l/activation	iliopsoas_l/activation	rect_fem_l/activation	  vasti_l/activation	gastroc_l/activation	 soleus_l/activation	tib_ant_l/activation	
          0.00000000	         -8.48278037	          0.23417062	         14.20684794	          0.00000000	          0.81575186	         -0.01860715	         40.86300669	         -7.95817819	         -6.96133883	        -10.87226642	          0.60488136	          0.26977324	         -7.64025089	         -0.62787290	         12.48289929	        -22.65488462	         11.02782243	         36.65804427	        -12.86068052	         -2.50520964	          0.37115885	          0.15507903	          0.10397295	          0.01000000	          0.00999999	          0.08856362	          0.06562740	          0.19796540	          0.12587467	          0.07496245	          0.01760657	          0.00999999	          0.02386989	          0.01175545	          0.37731196	          0.13334577	          0.00999999	          0.00999999	          0.04341520	          0.03559533	          0.05779711	          0.20330404	          0.02294405	          0.01000000	          0.05924232	          0.06545021	          0.17329135	          0.32555227	          0.01900192	
          0.01053271	         -8.38259443	          0.19686610	         14.45892470	          0.02370119	          0.81562457	         -0.01807416	         40.96322797	         -7.91269070	         -7.18661192	        -14.25068969	          0.41745743	          0.24254194	         -9.39726142	         -1.22489577	         12.13809821	        -21.87576233	          8.02471363	         38.14138187	        -12.54791134	         -2.19638878	          0.19472089	          0.14172653	          0.08844658	          0.01000000	          0.00999999	          0.08585295	          0.06871452	          0.16840307	          0.21623204	          0.06376825	          0.01497737	          0.00999999	          0.02030538	          0.01000000	          0.44212902	          0.14793499	          0.00999999	          0.00999999	          0.03693197	          0.06573279	          0.04916628	          0.30235719	          0.01951780	          0.01000056	          0.05039561	          0.05567647	          0.14741361	          0.27693727	          0.01616435	
          0.02106542	         -8.27739128	          0.19723805	         14.65474536	          0.04737380	          0.81556755	         -0.01745784	         41.02948124	         -7.86716103	         -7.34510531	        -17.54077022	          0.15164733	          0.22138683	        -10.89398756	         -1.71789589	         11.74892829	        -21.59706065	          5.15735393	         38.82699456	        -12.26271734	         -1.92291260	          0.02712437	          0.16299149	          0.07523878	          0.00999999	          0.04419931	          0.13267865	          0.05861981	          0.14325530	          0.29186702	          0.05424568	          0.01274078	          0.00999999	          0.01727316	          0.00999999	          0.50094942	          0.18551907	          0.00999999	          0.01000000	          0.03141689	          0.09416401	          0.04182428	          0.25720594	          0.01660319	          0.12117660	          0.04286999	          0.04736225	          0.12540021	          0.23558199	          0.01375051	
          0.03159813	         -8.16685148	          0.23707763	         14.79036094	          0.07083980	          0.81570596	         -0.01677106	         41.11804438	         -7.82210624	         -7.45058291	        -20.87607162	          0.12894191	          0.18725380	        -12.01022701	         -2.07753566	         11.35929541	        -22.01330059	          2.42370186	         38.72446273	        -12.02185228	         -1.68217691	         -0.12373795	          0.18557420	          0.06400331	          0.00999999	          0.08557011	          0.20410657	          0.05823646	          0.12186286	          0.38472026	          0.04614513	          0.01083819	          0.00999999	          0.01469374	          0.00999999	          0.47151416	          0.23066026	          0.00999999	          0.00999999	          0.02672538	          0.14617053	          0.03557865	          0.21879716	          0.01412383	          0.37975883	          0.03646818	          0.04028961	          0.10667409	          0.20040233	          0.01169714	
          0.04213084	         -8.04901031	          0.30246989	         14.86725734	          0.09399022	          0.81617175	         -0.01603746	         41.20539095	         -7.75413134	         -7.47160038	        -24.24993194	          0.57936912	          0.15491805	        -12.61255788	         -2.28952068	         11.04912691	        -23.31672718	         -0.28270672	         37.96912285	        -11.82594641	         -1.45543182	         -0.25306658	          0.21546287	          0.05444564	          0.00999999	          0.12486739	          0.26136604	          0.04953998	          0.10366498	          0.45869272	          0.03925424	          0.00999999	          0.00999999	          0.01249951	          0.00999999	          0.40110255	          0.29553292	          0.00999999	          0.01000000	          0.02273445	          0.18634225	          0.03026567	          0.18612400	          0.01201471	          0.50237533	          0.03102236	          0.03427313	          0.09074435	          0.17047608	          0.00999999	
